<?xml version="1.0" standalone="no"?>
<!DOCTYPE svg PUBLIC "-//W3C//DTD SVG 20010904//EN"
 "http://www.w3.org/TR/2001/REC-SVG-20010904/DTD/svg10.dtd">
<svg version="1.0" xmlns="http://www.w3.org/2000/svg"
 width="515.000000pt" height="264.000000pt" viewBox="0 0 515.000000 264.000000"
 preserveAspectRatio="xMidYMid meet">

<g transform="translate(0.000000,264.000000) scale(0.100000,-0.100000)"
fill="#000000" stroke="none">
<path d="M200 2425 c0 -87 3 -105 15 -105 12 0 15 13 15 60 l0 60 30 0 c20 0
30 5 30 15 0 10 -10 15 -30 15 -20 0 -30 5 -30 15 0 12 13 15 60 15 47 0 60 3
60 15 0 12 -15 15 -75 15 l-75 0 0 -105z"/>
<path d="M770 2500 c0 -20 -5 -30 -15 -30 -8 0 -15 -7 -15 -15 0 -8 7 -15 15
-15 11 0 15 -12 15 -45 0 -33 4 -45 15 -45 8 0 15 -7 15 -15 0 -8 7 -15 15
-15 8 0 15 7 15 15 0 8 -7 15 -15 15 -11 0 -15 12 -15 45 0 33 4 45 15 45 8 0
15 7 15 15 0 8 -7 15 -15 15 -10 0 -15 10 -15 30 0 20 -5 30 -15 30 -10 0 -15
-10 -15 -30z"/>
<path d="M860 2515 c0 -8 7 -15 15 -15 8 0 15 7 15 15 0 8 -7 15 -15 15 -8 0
-15 -7 -15 -15z"/>
<path d="M1400 2425 c0 -87 3 -105 15 -105 12 0 15 15 15 75 0 60 3 75 15 75
8 0 15 -7 15 -15 0 -8 7 -15 15 -15 8 0 15 7 15 15 0 8 7 15 15 15 12 0 15
-15 15 -75 0 -60 3 -75 15 -75 12 0 15 18 15 105 0 87 -3 105 -15 105 -8 0
-15 -7 -15 -15 0 -8 -7 -15 -15 -15 -8 0 -15 -7 -15 -15 0 -8 -7 -15 -15 -15
-8 0 -15 7 -15 15 0 8 -7 15 -15 15 -8 0 -15 7 -15 15 0 8 -7 15 -15 15 -12 0
-15 -18 -15 -105z"/>
<path d="M410 2455 c0 -11 12 -15 45 -15 33 0 45 -4 45 -15 0 -11 -12 -15 -45
-15 -33 0 -45 -4 -45 -15 0 -8 -7 -15 -15 -15 -8 0 -15 -7 -15 -15 0 -8 7 -15
15 -15 8 0 15 -7 15 -15 0 -12 13 -15 60 -15 l60 0 0 60 c0 47 -3 60 -15 60
-8 0 -15 7 -15 15 0 11 -12 15 -45 15 -33 0 -45 -4 -45 -15z m90 -90 c0 -11
-12 -15 -45 -15 -33 0 -45 4 -45 15 0 11 12 15 45 15 33 0 45 -4 45 -15z"/>
<path d="M590 2455 c0 -8 -7 -15 -15 -15 -11 0 -15 -12 -15 -45 0 -33 4 -45
15 -45 8 0 15 -7 15 -15 0 -11 12 -15 45 -15 33 0 45 4 45 15 0 8 7 15 15 15
8 0 15 7 15 15 0 8 -7 15 -15 15 -8 0 -15 -7 -15 -15 0 -11 -12 -15 -45 -15
l-45 0 0 45 0 45 45 0 c33 0 45 -4 45 -15 0 -8 7 -15 15 -15 8 0 15 7 15 15 0
8 -7 15 -15 15 -8 0 -15 7 -15 15 0 11 -12 15 -45 15 -33 0 -45 -4 -45 -15z"/>
<path d="M860 2395 c0 -60 3 -75 15 -75 12 0 15 15 15 75 0 60 -3 75 -15 75
-12 0 -15 -15 -15 -75z"/>
<path d="M950 2455 c0 -8 -7 -15 -15 -15 -11 0 -15 -12 -15 -45 0 -33 4 -45
15 -45 8 0 15 -7 15 -15 0 -11 12 -15 45 -15 33 0 45 4 45 15 0 8 7 15 15 15
11 0 15 12 15 45 0 33 -4 45 -15 45 -8 0 -15 7 -15 15 0 11 -12 15 -45 15 -33
0 -45 -4 -45 -15z m90 -60 l0 -45 -45 0 -45 0 0 45 0 45 45 0 45 0 0 -45z"/>
<path d="M1100 2395 c0 -60 3 -75 15 -75 12 0 15 13 15 60 l0 60 45 0 45 0 0
-60 c0 -47 3 -60 15 -60 12 0 15 13 15 60 0 47 -3 60 -15 60 -8 0 -15 7 -15
15 0 12 -13 15 -60 15 l-60 0 0 -75z"/>
<path d="M1610 2455 c0 -11 12 -15 45 -15 33 0 45 -4 45 -15 0 -11 -12 -15
-45 -15 -33 0 -45 -4 -45 -15 0 -8 -7 -15 -15 -15 -8 0 -15 -7 -15 -15 0 -8 7
-15 15 -15 8 0 15 -7 15 -15 0 -12 13 -15 60 -15 l60 0 0 60 c0 47 -3 60 -15
60 -8 0 -15 7 -15 15 0 11 -12 15 -45 15 -33 0 -45 -4 -45 -15z m90 -90 c0
-11 -12 -15 -45 -15 -33 0 -45 4 -45 15 0 11 12 15 45 15 33 0 45 -4 45 -15z"/>
<path d="M1760 2395 c0 -60 3 -75 15 -75 12 0 15 13 15 60 l0 60 45 0 45 0 0
-60 c0 -47 3 -60 15 -60 12 0 15 13 15 60 0 47 -3 60 -15 60 -8 0 -15 7 -15
15 0 12 -13 15 -60 15 l-60 0 0 -75z"/>
<path d="M1970 2455 c0 -11 12 -15 45 -15 33 0 45 -4 45 -15 0 -11 -12 -15
-45 -15 -33 0 -45 -4 -45 -15 0 -8 -7 -15 -15 -15 -8 0 -15 -7 -15 -15 0 -8 7
-15 15 -15 8 0 15 -7 15 -15 0 -12 13 -15 60 -15 l60 0 0 60 c0 47 -3 60 -15
60 -8 0 -15 7 -15 15 0 11 -12 15 -45 15 -33 0 -45 -4 -45 -15z m90 -90 c0
-11 -12 -15 -45 -15 -33 0 -45 4 -45 15 0 11 12 15 45 15 33 0 45 -4 45 -15z"/>
<path d="M2150 2455 c0 -8 -7 -15 -15 -15 -10 0 -15 -10 -15 -30 0 -20 5 -30
15 -30 8 0 15 -7 15 -15 0 -11 12 -15 45 -15 33 0 45 -4 45 -15 0 -12 -13 -15
-60 -15 -47 0 -60 -3 -60 -15 0 -12 13 -15 60 -15 47 0 60 3 60 15 0 8 7 15
15 15 12 0 15 15 15 75 l0 75 -60 0 c-47 0 -60 -3 -60 -15z m90 -45 c0 -29 -2
-30 -45 -30 -43 0 -45 1 -45 30 0 29 2 30 45 30 43 0 45 -1 45 -30z"/>
<path d="M2330 2455 c0 -8 -7 -15 -15 -15 -11 0 -15 -12 -15 -45 0 -33 4 -45
15 -45 8 0 15 -7 15 -15 0 -12 13 -15 60 -15 47 0 60 3 60 15 0 12 -13 15 -60
15 -47 0 -60 3 -60 15 0 12 13 15 60 15 l60 0 0 30 c0 20 -5 30 -15 30 -8 0
-15 7 -15 15 0 11 -12 15 -45 15 -33 0 -45 -4 -45 -15z m90 -30 c0 -11 -12
-15 -45 -15 -33 0 -45 4 -45 15 0 11 12 15 45 15 33 0 45 -4 45 -15z"/>
<path d="M2480 2395 c0 -60 3 -75 15 -75 11 0 15 12 15 45 0 33 4 45 15 45 8
0 15 7 15 15 0 10 10 15 30 15 20 0 30 -5 30 -15 0 -8 7 -15 15 -15 8 0 15 7
15 15 0 8 -7 15 -15 15 -8 0 -15 7 -15 15 0 10 -10 15 -30 15 -20 0 -30 -5
-30 -15 0 -8 -7 -15 -15 -15 -8 0 -15 7 -15 15 0 8 -7 15 -15 15 -12 0 -15
-15 -15 -75z"/>
<path d="M170 1120 c0 -953 2 -1080 15 -1080 8 0 15 7 15 15 0 13 33 15 240
15 l240 0 0 240 c0 207 2 240 15 240 13 0 15 -35 15 -255 0 -220 2 -255 15
-255 8 0 15 7 15 15 0 13 33 15 240 15 l240 0 0 240 c0 207 2 240 15 240 13 0
15 -35 15 -255 0 -220 2 -255 15 -255 8 0 15 7 15 15 0 13 33 15 240 15 l240
0 0 240 c0 207 2 240 15 240 13 0 15 -35 15 -255 0 -220 2 -255 15 -255 8 0
15 7 15 15 0 13 33 15 240 15 l240 0 0 240 c0 207 2 240 15 240 13 0 15 -35
15 -255 0 -220 2 -255 15 -255 8 0 15 7 15 15 0 13 33 15 240 15 l240 0 0 240
c0 207 2 240 15 240 13 0 15 -35 15 -255 0 -220 2 -255 15 -255 8 0 15 7 15
15 0 13 33 15 240 15 l240 0 0 240 c0 207 2 240 15 240 13 0 15 -35 15 -255 0
-220 2 -255 15 -255 8 0 15 7 15 15 0 13 33 15 240 15 l240 0 0 240 c0 207 2
240 15 240 13 0 15 -35 15 -255 0 -220 2 -255 15 -255 8 0 15 7 15 15 0 13 33
15 240 15 l240 0 0 240 c0 207 2 240 15 240 13 0 15 -35 15 -255 0 -220 2
-255 15 -255 8 0 15 7 15 15 0 13 33 15 240 15 l240 0 0 240 c0 207 2 240 15
240 8 0 15 7 15 15 0 13 -35 15 -255 15 -220 0 -255 2 -255 15 0 13 33 15 240
15 l240 0 0 240 c0 207 2 240 15 240 8 0 15 7 15 15 0 13 -35 15 -255 15 -220
0 -255 2 -255 15 0 13 33 15 240 15 l240 0 0 240 c0 207 2 240 15 240 8 0 15
7 15 15 0 13 -35 15 -255 15 -220 0 -255 2 -255 15 0 13 33 15 240 15 l240 0
0 240 c0 207 2 240 15 240 8 0 15 7 15 15 0 13 -277 15 -2430 15 l-2430 0 0
-1080z m540 795 l0 -255 -255 0 c-220 0 -255 2 -255 15 0 13 33 15 240 15
l240 0 0 240 c0 207 2 240 15 240 13 0 15 -35 15 -255z m540 0 l0 -255 -255 0
c-220 0 -255 2 -255 15 0 13 33 15 240 15 l240 0 0 240 c0 207 2 240 15 240
13 0 15 -35 15 -255z m540 0 l0 -255 -255 0 c-220 0 -255 2 -255 15 0 13 33
15 240 15 l240 0 0 240 c0 207 2 240 15 240 13 0 15 -35 15 -255z m540 0 l0
-255 -255 0 c-220 0 -255 2 -255 15 0 13 33 15 240 15 l240 0 0 240 c0 207 2
240 15 240 13 0 15 -35 15 -255z m540 0 l0 -255 -255 0 c-220 0 -255 2 -255
15 0 13 33 15 240 15 l240 0 0 240 c0 207 2 240 15 240 13 0 15 -35 15 -255z
m540 0 l0 -255 -255 0 c-220 0 -255 2 -255 15 0 13 33 15 240 15 l240 0 0 240
c0 207 2 240 15 240 13 0 15 -35 15 -255z m540 0 l0 -255 -255 0 c-220 0 -255
2 -255 15 0 13 33 15 240 15 l240 0 0 240 c0 207 2 240 15 240 13 0 15 -35 15
-255z m540 0 l0 -255 -255 0 c-220 0 -255 2 -255 15 0 13 33 15 240 15 l240 0
0 240 c0 207 2 240 15 240 13 0 15 -35 15 -255z m-4080 120 c0 -8 -7 -15 -15
-15 -8 0 -15 7 -15 15 0 8 7 15 15 15 8 0 15 -7 15 -15z m60 -30 c0 -8 -7 -15
-15 -15 -8 0 -15 7 -15 15 0 8 7 15 15 15 8 0 15 -7 15 -15z m-60 -60 c0 -8
-7 -15 -15 -15 -8 0 -15 7 -15 15 0 8 7 15 15 15 8 0 15 -7 15 -15z m-90 -30
c0 -8 -7 -15 -15 -15 -8 0 -15 7 -15 15 0 8 7 15 15 15 8 0 15 -7 15 -15z
m210 0 c0 -8 -7 -15 -15 -15 -8 0 -15 7 -15 15 0 8 7 15 15 15 8 0 15 -7 15
-15z m180 -540 l0 -255 -255 0 c-220 0 -255 2 -255 15 0 13 33 15 240 15 l240
0 0 240 c0 207 2 240 15 240 13 0 15 -35 15 -255z m540 0 l0 -255 -255 0
c-220 0 -255 2 -255 15 0 13 33 15 240 15 l240 0 0 240 c0 207 2 240 15 240
13 0 15 -35 15 -255z m540 0 l0 -255 -255 0 c-220 0 -255 2 -255 15 0 13 33
15 240 15 l240 0 0 240 c0 207 2 240 15 240 13 0 15 -35 15 -255z m540 0 l0
-255 -255 0 c-220 0 -255 2 -255 15 0 13 33 15 240 15 l240 0 0 240 c0 207 2
240 15 240 13 0 15 -35 15 -255z m540 0 l0 -255 -255 0 c-220 0 -255 2 -255
15 0 13 33 15 240 15 l240 0 0 240 c0 207 2 240 15 240 13 0 15 -35 15 -255z
m540 0 l0 -255 -255 0 c-220 0 -255 2 -255 15 0 13 33 15 240 15 l240 0 0 240
c0 207 2 240 15 240 13 0 15 -35 15 -255z m540 0 l0 -255 -255 0 c-220 0 -255
2 -255 15 0 13 33 15 240 15 l240 0 0 240 c0 207 2 240 15 240 13 0 15 -35 15
-255z m540 0 l0 -255 -255 0 c-220 0 -255 2 -255 15 0 13 33 15 240 15 l240 0
0 240 c0 207 2 240 15 240 13 0 15 -35 15 -255z m-1830 180 c0 -8 7 -15 15
-15 8 0 15 -7 15 -15 0 -8 7 -15 15 -15 8 0 15 -7 15 -15 0 -8 7 -15 15 -15 8
0 15 -7 15 -15 0 -8 7 -15 15 -15 8 0 15 -7 15 -15 0 -8 7 -15 15 -15 8 0 15
-7 15 -15 0 -10 -10 -15 -30 -15 -20 0 -30 -5 -30 -15 0 -8 -7 -15 -15 -15 -8
0 -15 -7 -15 -15 0 -8 -7 -15 -15 -15 -8 0 -15 -7 -15 -15 0 -10 -10 -15 -30
-15 -20 0 -30 -5 -30 -15 0 -10 -10 -15 -30 -15 -20 0 -30 -5 -30 -15 0 -10
-10 -15 -30 -15 -20 0 -30 5 -30 15 0 8 -7 15 -15 15 -8 0 -15 7 -15 15 0 8
-7 15 -15 15 -8 0 -15 7 -15 15 0 8 -7 15 -15 15 -8 0 -15 7 -15 15 0 8 -7 15
-15 15 -8 0 -15 7 -15 15 0 8 -7 15 -15 15 -8 0 -15 7 -15 15 0 10 10 15 30
15 20 0 30 5 30 15 0 10 10 15 30 15 20 0 30 5 30 15 0 10 10 15 30 15 20 0
30 5 30 15 0 8 7 15 15 15 8 0 15 7 15 15 0 8 7 15 15 15 8 0 15 7 15 15 0 10
10 15 30 15 20 0 30 -5 30 -15z m-1110 -30 c0 -8 7 -15 15 -15 10 0 15 -10 15
-30 0 -20 5 -30 15 -30 8 0 15 -7 15 -15 0 -10 10 -15 30 -15 20 0 30 -5 30
-15 0 -8 7 -15 15 -15 8 0 15 -7 15 -15 0 -8 -7 -15 -15 -15 -8 0 -15 -7 -15
-15 0 -10 -10 -15 -30 -15 -20 0 -30 -5 -30 -15 0 -8 -7 -15 -15 -15 -10 0
-15 -10 -15 -30 0 -20 -5 -30 -15 -30 -8 0 -15 -7 -15 -15 0 -8 -7 -15 -15
-15 -8 0 -15 7 -15 15 0 8 -7 15 -15 15 -10 0 -15 10 -15 30 0 20 -5 30 -15
30 -8 0 -15 7 -15 15 0 10 -10 15 -30 15 -20 0 -30 5 -30 15 0 8 -7 15 -15 15
-8 0 -15 7 -15 15 0 8 7 15 15 15 8 0 15 7 15 15 0 10 10 15 30 15 20 0 30 5
30 15 0 8 7 15 15 15 10 0 15 10 15 30 0 20 5 30 15 30 8 0 15 7 15 15 0 8 7
15 15 15 8 0 15 -7 15 -15z m2340 -135 c0 -20 -5 -30 -15 -30 -8 0 -15 -7 -15
-15 0 -10 -10 -15 -30 -15 -20 0 -30 -5 -30 -15 0 -10 -10 -15 -30 -15 -20 0
-30 -5 -30 -15 0 -10 -10 -15 -30 -15 -20 0 -30 -5 -30 -15 0 -11 -12 -15 -45
-15 -33 0 -45 4 -45 15 0 8 -7 15 -15 15 -8 0 -15 7 -15 15 0 8 -7 15 -15 15
-8 0 -15 7 -15 15 0 8 -7 15 -15 15 -10 0 -15 10 -15 30 0 20 5 30 15 30 8 0
15 -7 15 -15 0 -8 7 -15 15 -15 8 0 15 -7 15 -15 0 -8 7 -15 15 -15 8 0 15 -7
15 -15 0 -11 12 -15 45 -15 33 0 45 4 45 15 0 10 10 15 30 15 20 0 30 5 30 15
0 10 10 15 30 15 20 0 30 5 30 15 0 10 10 15 30 15 20 0 30 5 30 15 0 8 7 15
15 15 10 0 15 -10 15 -30z m-3180 -555 l0 -255 -255 0 c-220 0 -255 2 -255 15
0 13 33 15 240 15 l240 0 0 240 c0 207 2 240 15 240 13 0 15 -35 15 -255z
m540 0 l0 -255 -255 0 c-220 0 -255 2 -255 15 0 13 33 15 240 15 l240 0 0 240
c0 207 2 240 15 240 13 0 15 -35 15 -255z m540 0 l0 -255 -255 0 c-220 0 -255
2 -255 15 0 13 33 15 240 15 l240 0 0 240 c0 207 2 240 15 240 13 0 15 -35 15
-255z m540 0 l0 -255 -255 0 c-220 0 -255 2 -255 15 0 13 33 15 240 15 l240 0
0 240 c0 207 2 240 15 240 13 0 15 -35 15 -255z m540 0 l0 -255 -255 0 c-220
0 -255 2 -255 15 0 13 33 15 240 15 l240 0 0 240 c0 207 2 240 15 240 13 0 15
-35 15 -255z m540 0 l0 -255 -255 0 c-220 0 -255 2 -255 15 0 13 33 15 240 15
l240 0 0 240 c0 207 2 240 15 240 13 0 15 -35 15 -255z m540 0 l0 -255 -255 0
c-220 0 -255 2 -255 15 0 13 33 15 240 15 l240 0 0 240 c0 207 2 240 15 240
13 0 15 -35 15 -255z m540 0 l0 -255 -255 0 c-220 0 -255 2 -255 15 0 13 33
15 240 15 l240 0 0 240 c0 207 2 240 15 240 13 0 15 -35 15 -255z m450 -330
c0 -8 7 -15 15 -15 12 0 15 -15 15 -75 0 -60 -3 -75 -15 -75 -8 0 -15 -7 -15
-15 0 -8 -7 -15 -15 -15 -8 0 -15 -7 -15 -15 0 -8 -7 -15 -15 -15 -8 0 -15 7
-15 15 0 8 7 15 15 15 8 0 15 7 15 15 0 8 7 15 15 15 12 0 15 13 15 60 l0 60
-45 0 c-33 0 -45 -4 -45 -15 0 -8 -7 -15 -15 -15 -10 0 -15 -10 -15 -30 0 -20
5 -30 15 -30 11 0 15 -12 15 -45 0 -33 -4 -45 -15 -45 -8 0 -15 -7 -15 -15 0
-8 -7 -15 -15 -15 -8 0 -15 -7 -15 -15 0 -8 -7 -15 -15 -15 -8 0 -15 -7 -15
-15 0 -8 -7 -15 -15 -15 -8 0 -15 -7 -15 -15 0 -8 -7 -15 -15 -15 -8 0 -15 -7
-15 -15 0 -8 -7 -15 -15 -15 -8 0 -15 -7 -15 -15 0 -8 -7 -15 -15 -15 -10 0
-15 10 -15 30 0 20 -5 30 -15 30 -8 0 -15 7 -15 15 0 8 -7 15 -15 15 -8 0 -15
-7 -15 -15 0 -8 7 -15 15 -15 10 0 15 -10 15 -30 0 -20 -5 -30 -15 -30 -8 0
-15 7 -15 15 0 8 -7 15 -15 15 -11 0 -15 12 -15 45 0 33 4 45 15 45 8 0 15 7
15 15 0 8 7 15 15 15 8 0 15 7 15 15 0 8 7 15 15 15 8 0 15 7 15 15 0 8 7 15
15 15 8 0 15 7 15 15 0 8 7 15 15 15 8 0 15 7 15 15 0 8 7 15 15 15 8 0 15 7
15 15 0 8 7 15 15 15 10 0 15 -10 15 -30 0 -20 -5 -30 -15 -30 -8 0 -15 -7
-15 -15 0 -8 -7 -15 -15 -15 -8 0 -15 -7 -15 -15 0 -8 7 -15 15 -15 8 0 15 -7
15 -15 0 -8 7 -15 15 -15 8 0 15 7 15 15 0 8 7 15 15 15 8 0 15 7 15 15 0 8
-7 15 -15 15 -8 0 -15 7 -15 15 0 8 7 15 15 15 11 0 15 12 15 45 0 33 4 45 15
45 10 0 15 10 15 30 0 20 5 30 15 30 8 0 15 7 15 15 0 11 12 15 45 15 33 0 45
-4 45 -15z m-4440 -30 c0 -8 7 -15 15 -15 8 0 15 -7 15 -15 0 -8 7 -15 15 -15
8 0 15 -7 15 -15 0 -8 7 -15 15 -15 8 0 15 -7 15 -15 0 -8 7 -15 15 -15 8 0
15 -7 15 -15 0 -8 7 -15 15 -15 8 0 15 -7 15 -15 0 -10 -10 -15 -30 -15 -20 0
-30 -5 -30 -15 0 -8 -7 -15 -15 -15 -8 0 -15 -7 -15 -15 0 -8 -7 -15 -15 -15
-8 0 -15 -7 -15 -15 0 -10 -10 -15 -30 -15 -20 0 -30 -5 -30 -15 0 -10 -10
-15 -30 -15 -20 0 -30 -5 -30 -15 0 -10 -10 -15 -30 -15 -20 0 -30 5 -30 15 0
8 -7 15 -15 15 -8 0 -15 7 -15 15 0 8 -7 15 -15 15 -8 0 -15 7 -15 15 0 8 -7
15 -15 15 -8 0 -15 7 -15 15 0 8 -7 15 -15 15 -8 0 -15 7 -15 15 0 8 -7 15
-15 15 -8 0 -15 7 -15 15 0 10 10 15 30 15 20 0 30 5 30 15 0 10 10 15 30 15
20 0 30 5 30 15 0 10 10 15 30 15 20 0 30 5 30 15 0 8 7 15 15 15 8 0 15 7 15
15 0 8 7 15 15 15 8 0 15 7 15 15 0 10 10 15 30 15 20 0 30 -5 30 -15z m2250
-60 c0 -8 -7 -15 -15 -15 -8 0 -15 7 -15 15 0 8 7 15 15 15 8 0 15 -7 15 -15z
m-270 -195 c0 -20 -5 -30 -15 -30 -10 0 -15 10 -15 30 0 20 5 30 15 30 10 0
15 -10 15 -30z"/>
<path d="M4610 235 c0 -8 7 -15 15 -15 8 0 15 -7 15 -15 0 -10 10 -15 30 -15
27 0 30 3 30 30 0 20 -5 30 -15 30 -8 0 -15 -7 -15 -15 0 -8 -7 -15 -15 -15
-8 0 -15 7 -15 15 0 8 -7 15 -15 15 -8 0 -15 -7 -15 -15z"/>
</g>
</svg>
