<?xml version="1.0" encoding="UTF-8"?>
<svg xmlns="http://www.w3.org/2000/svg" xmlns:xlink="http://www.w3.org/1999/xlink" width="1088px" height="688px" viewBox="0 0 688 688" version="1.1">
<g id="surface1">
<path style=" stroke:none;fill-rule:nonzero;fill:rgb(0%,0%,0%);fill-opacity:1;" d="M 53.253906 5.816406 C 37.339844 7.039062 25.707031 9.488281 20.199219 13.160156 C 3.058594 24.484375 3.058594 24.179688 3.058594 214.539062 C 3.058594 408.269531 2.753906 403.679688 22.953125 416.226562 C 31.523438 421.429688 37.949219 422.347656 70.085938 422.347656 L 107.117188 422.347656 L 107.117188 503.453125 L 146.292969 542.625 L 185.160156 581.496094 L 266.261719 581.496094 L 266.261719 616.996094 C 266.261719 657.394531 270.242188 670.25 285.851562 679.738281 C 294.726562 685.246094 304.519531 685.550781 475.90625 685.550781 C 649.742188 685.550781 656.78125 685.246094 666.269531 679.429688 C 686.164062 667.496094 685.550781 673.617188 685.550781 478.355469 C 685.550781 280.953125 686.164062 286.769531 664.433594 274.21875 C 654.640625 268.710938 646.378906 268.101562 538.035156 266.875 L 422.347656 265.34375 L 422.347656 151.800781 C 422.347656 24.789062 422.042969 23.566406 400.621094 10.710938 C 390.519531 4.898438 384.398438 4.589844 234.128906 4.285156 C 148.433594 3.980469 67.023438 4.589844 53.253906 5.816406 Z M 372.769531 160.980469 L 373.378906 265.34375 L 357.464844 267.488281 C 348.589844 268.40625 331.757812 269.324219 320.128906 269.324219 C 308.5 269.324219 294.421875 270.855469 289.21875 272.691406 C 280.953125 275.75 278.199219 275.445312 266.875 268.101562 C 259.835938 263.816406 254.019531 258.917969 254.019531 257.695312 C 254.019531 256.46875 259.53125 248.820312 266.261719 240.859375 C 284.015625 219.132812 306.355469 184.546875 310.945312 171.695312 C 314.3125 161.289062 315.539062 160.675781 328.699219 159.757812 L 342.777344 158.839844 L 342.777344 110.179688 L 290.136719 109.566406 L 237.1875 108.648438 L 237.1875 82.632812 L 186.691406 82.632812 L 186.691406 110.179688 L 82.632812 110.179688 L 82.632812 159.144531 L 108.648438 159.144531 C 123.03125 159.144531 134.660156 160.371094 134.660156 161.59375 C 134.660156 163.125 131.90625 166.796875 128.539062 169.859375 C 114.460938 182.710938 123.644531 206.582031 157.308594 243.921875 L 171.695312 259.835938 L 158.535156 268.710938 C 151.1875 273.609375 134.96875 282.789062 122.421875 289.21875 C 93.652344 303.296875 85.695312 310.640625 85.695312 321.964844 C 85.695312 335.125 90.589844 341.859375 102.832031 345.835938 C 112.933594 349.203125 115.378906 348.589844 141.699219 335.738281 C 157.308594 328.390625 179.652344 315.84375 191.28125 307.886719 C 212.09375 293.808594 213.011719 293.5 220.355469 298.09375 C 224.640625 300.847656 236.578125 308.191406 246.980469 314.621094 L 266.261719 325.941406 L 266.261719 373.378906 L 213.621094 373.378906 C 163.738281 373.378906 160.675781 373.074219 153.941406 366.648438 L 146.902344 360.21875 L 139.863281 366.648438 C 133.4375 372.769531 129.460938 373.378906 92.425781 373.378906 L 52.027344 373.378906 L 52.027344 55.089844 L 212.09375 55.699219 L 371.851562 56.621094 Z M 260.140625 160.980469 C 260.140625 164.042969 234.738281 199.851562 224.027344 211.785156 C 218.214844 218.214844 211.785156 223.417969 209.339844 223.417969 C 207.195312 223.417969 198.015625 214.234375 189.140625 203.21875 C 180.261719 191.894531 168.328125 177.507812 162.511719 171.082031 L 152.414062 159.144531 L 206.277344 159.144531 C 235.964844 159.144531 260.140625 159.757812 260.140625 160.980469 Z M 504.371094 355.9375 C 506.207031 358.078125 526.40625 410.105469 549.054688 471.621094 C 571.699219 532.832031 591.59375 586.699219 593.429688 591.289062 L 596.796875 599.859375 L 536.8125 599.859375 L 528.242188 573.84375 L 519.980469 547.828125 L 432.753906 547.828125 L 424.183594 573.84375 L 415.921875 599.859375 L 386.847656 599.859375 C 370.625 599.859375 358.078125 598.632812 358.078125 596.796875 C 358.078125 595.265625 359.300781 590.980469 361.140625 587.003906 C 362.667969 583.023438 381.03125 533.75 402.148438 477.4375 C 422.960938 421.125 442.242188 369.707031 444.691406 363.28125 L 449.585938 351.957031 L 475.296875 351.957031 C 493.046875 351.957031 502.226562 353.179688 504.371094 355.9375 Z M 266.261719 463.664062 L 266.261719 505.289062 L 225.863281 504.371094 L 185.160156 503.453125 L 184.242188 467.03125 C 183.9375 446.832031 184.242188 428.46875 184.855469 426.328125 C 186.078125 423.265625 196.484375 422.347656 226.476562 422.347656 L 266.261719 422.347656 Z M 266.261719 463.664062 "/>
<path style=" stroke:none;fill-rule:nonzero;fill:rgb(0%,0%,0%);fill-opacity:1;" d="M 462.746094 463.054688 C 455.707031 483.558594 449.894531 502.226562 449.894531 504.0625 C 449.894531 506.820312 456.015625 508.042969 470.703125 508.042969 C 508.042969 508.042969 506.820312 510.492188 491.210938 466.113281 C 483.558594 444.996094 477.132812 427.246094 476.824219 426.632812 C 476.214844 426.328125 470.09375 442.546875 462.746094 463.054688 Z M 462.746094 463.054688 "/>
</g>
</svg>
