<?xml version="1.0" encoding="UTF-8"?>
<svg xmlns="http://www.w3.org/2000/svg" xmlns:xlink="http://www.w3.org/1999/xlink" width="1088px" height="1086px" viewBox="0 0 1087 1086" version="1.1">
<defs>
<filter id="alpha" filterUnits="objectBoundingBox" x="0%" y="0%" width="100%" height="100%">
  <feColorMatrix type="matrix" in="SourceGraphic" values="0 0 0 0 1 0 0 0 0 1 0 0 0 0 1 0 0 0 1 0"/>
</filter>
<mask id="mask0">
  <g filter="url(#alpha)">
<rect x="0" y="0" width="1087" height="1086" style="fill:rgb(0%,0%,0%);fill-opacity:0.988235;stroke:none;"/>
  </g>
</mask>
<clipPath id="clip1">
  <rect x="0" y="0" width="1087" height="1086"/>
</clipPath>
<g id="surface5" clip-path="url(#clip1)">
<path style=" stroke:none;fill-rule:evenodd;fill:rgb(96.470588%,69.411765%,3.529412%);fill-opacity:1;" d="M 844.921875 255.472656 C 837.832031 248.785156 829.664062 244.074219 820.429688 241.332031 C 806.640625 261.710938 794.085938 282.765625 782.753906 304.496094 C 744.261719 364.082031 706.898438 424.417969 670.660156 485.496094 C 668.195312 490.164062 664.742188 493.933594 660.300781 496.808594 C 611.316406 467.898438 562.964844 438.046875 515.242188 407.25 C 512.871094 405.398438 510.359375 404.769531 507.707031 405.363281 C 466.445312 472.585938 425 539.519531 383.371094 606.160156 C 371.566406 623.667969 359.636719 641.269531 347.578125 658.953125 C 330.515625 647.28125 312.933594 636.597656 294.828125 626.902344 C 276.710938 616.011719 258.816406 604.699219 241.136719 592.964844 C 161.25 657.863281 81.5 722.59375 1.882812 787.160156 C 1.335938 782.855469 2.277344 778.769531 4.710938 774.90625 C 70.121094 675.691406 135.742188 576.707031 201.574219 477.953125 C 203.476562 475.078125 204.417969 471.933594 204.402344 468.527344 C 209.949219 464.835938 214.347656 459.808594 217.589844 453.441406 C 219.21875 451.402344 221.101562 451.085938 223.238281 452.5 C 247.179688 470.746094 271.671875 488.027344 296.710938 504.347656 C 299.769531 506.761719 302.910156 509.277344 306.128906 511.890625 C 362.828125 424.164062 418.089844 335.550781 471.914062 246.046875 C 522.945312 278.277344 574.4375 309.703125 626.390625 340.316406 C 655.742188 293.511719 684.628906 246.375 713.050781 198.910156 C 717.375 195.328125 720.828125 190.929688 723.410156 185.714844 C 724.882812 182.992188 724.566406 180.476562 722.46875 178.171875 C 694.585938 161.261719 666.957031 143.980469 639.578125 126.324219 C 660.085938 116.378906 680.175781 106.007812 699.863281 95.214844 C 766.671875 64.609375 833.234375 33.5 899.554688 1.886719 C 902.632812 0.953125 905.773438 0.640625 908.972656 0.941406 C 909.289062 89.558594 908.972656 178.175781 908.03125 266.785156 C 907.707031 275.027344 906.765625 283.195312 905.207031 291.296875 C 885.078125 279.304688 864.984375 267.363281 844.921875 255.472656 Z M 844.921875 255.472656 "/>
</g>
<mask id="mask1">
  <g filter="url(#alpha)">
<rect x="0" y="0" width="1087" height="1086" style="fill:rgb(0%,0%,0%);fill-opacity:0.964706;stroke:none;"/>
  </g>
</mask>
<clipPath id="clip2">
  <rect x="0" y="0" width="1087" height="1086"/>
</clipPath>
<g id="surface8" clip-path="url(#clip2)">
<path style=" stroke:none;fill-rule:evenodd;fill:rgb(20%,19.607843%,19.607843%);fill-opacity:1;" d="M 699.863281 95.214844 C 680.175781 106.007812 660.085938 116.378906 639.578125 126.324219 C 666.957031 143.980469 694.585938 161.261719 722.46875 178.171875 C 724.566406 180.476562 724.882812 182.992188 723.410156 185.714844 C 720.828125 190.929688 717.375 195.328125 713.050781 198.910156 C 703.316406 187.617188 692.011719 177.875 679.140625 169.6875 C 597.707031 120.6875 514.191406 113.773438 428.582031 148.949219 C 337.765625 192.46875 285.644531 265.058594 272.222656 366.714844 C 268.738281 414.257812 276.902344 460.132812 296.710938 504.347656 C 271.671875 488.027344 247.179688 470.746094 223.238281 452.5 C 221.101562 451.085938 219.21875 451.402344 217.589844 453.441406 C 214.347656 459.808594 209.949219 464.835938 204.402344 468.527344 C 181.632812 354.914062 207.691406 253.730469 282.582031 164.972656 C 354.378906 90.15625 440.722656 52.449219 541.617188 51.847656 C 597.964844 54.109375 650.710938 68.566406 699.863281 95.214844 Z M 699.863281 95.214844 "/>
</g>
<mask id="mask2">
  <g filter="url(#alpha)">
<rect x="0" y="0" width="1087" height="1086" style="fill:rgb(0%,0%,0%);fill-opacity:0.92549;stroke:none;"/>
  </g>
</mask>
<clipPath id="clip3">
  <rect x="0" y="0" width="1087" height="1086"/>
</clipPath>
<g id="surface11" clip-path="url(#clip3)">
<path style=" stroke:none;fill-rule:evenodd;fill:rgb(19.607843%,19.607843%,19.607843%);fill-opacity:1;" d="M 522.777344 136.691406 C 537.175781 137.996094 551.617188 138.941406 566.105469 139.519531 C 585.449219 143.699219 591.414062 154.699219 584.003906 172.515625 C 578.453125 178.472656 571.542969 181.617188 563.28125 181.941406 C 506.777344 173.375 454.34375 184.375 405.976562 214.9375 C 368.171875 245.644531 343.996094 284.921875 333.445312 332.777344 C 332.570312 342.636719 331 352.375 328.738281 362 C 331.460938 381.902344 322.667969 390.699219 302.363281 388.394531 C 290.535156 383.574219 286.136719 374.773438 289.175781 362 C 294.308594 307.59375 313.464844 258.886719 346.632812 215.878906 C 378.761719 180.476562 418.011719 156.90625 464.375 145.175781 C 484.273438 141.238281 503.742188 138.410156 522.777344 136.691406 Z M 522.777344 136.691406 "/>
</g>
<mask id="mask3">
  <g filter="url(#alpha)">
<rect x="0" y="0" width="1087" height="1086" style="fill:rgb(0%,0%,0%);fill-opacity:0.972549;stroke:none;"/>
  </g>
</mask>
<clipPath id="clip4">
  <rect x="0" y="0" width="1087" height="1086"/>
</clipPath>
<g id="surface14" clip-path="url(#clip4)">
<path style=" stroke:none;fill-rule:evenodd;fill:rgb(19.607843%,19.607843%,19.607843%);fill-opacity:1;" d="M 844.921875 255.472656 C 880.132812 339.488281 882.332031 424.332031 851.515625 510.003906 C 833.070312 559.15625 804.496094 601.578125 765.796875 637.269531 C 787.054688 666.714844 809.03125 695.625 831.734375 724 C 853.167969 713.101562 871.691406 717.1875 887.308594 736.253906 C 952.578125 823.867188 1018.828125 910.597656 1086.058594 996.441406 C 1086.058594 999.585938 1086.058594 1002.726562 1086.058594 1005.871094 C 1084.742188 1009.957031 1082.230469 1013.410156 1078.523438 1016.238281 C 1047.914062 1038.757812 1017.769531 1061.699219 988.097656 1085.058594 C 983.699219 1085.058594 979.304688 1085.058594 974.910156 1085.058594 C 970.597656 1083.976562 966.515625 1082.089844 962.664062 1079.402344 C 896.507812 991.195312 829.628906 903.523438 762.03125 816.386719 C 762.65625 815.757812 763.285156 815.128906 763.914062 814.5 C 757.3125 800.359375 758.882812 786.847656 768.625 773.964844 C 770.035156 772.785156 771.609375 771.839844 773.332031 771.136719 C 751.089844 741.015625 728.480469 711.164062 705.515625 681.578125 C 618.117188 732.78125 524.550781 742.523438 424.816406 710.800781 C 374.742188 693.011719 331.414062 665.042969 294.828125 626.902344 C 312.933594 636.597656 330.515625 647.28125 347.578125 658.953125 C 359.636719 641.269531 371.566406 623.667969 383.371094 606.160156 C 436.53125 642.570312 494.929688 658.28125 558.570312 653.296875 C 672.539062 638.265625 748.835938 575.417969 787.460938 464.753906 C 802.4375 409.773438 800.867188 356.355469 782.753906 304.496094 C 794.085938 282.765625 806.640625 261.710938 820.429688 241.332031 C 829.664062 244.074219 837.832031 248.785156 844.921875 255.472656 Z M 844.921875 255.472656 "/>
</g>
</defs>
<g id="surface1">
<use xlink:href="#surface5" mask="url(#mask0)"/>
<use xlink:href="#surface8" mask="url(#mask1)"/>
<use xlink:href="#surface11" mask="url(#mask2)"/>
<use xlink:href="#surface14" mask="url(#mask3)"/>
</g>
</svg>
